<?xml version="1.0" encoding="UTF-8"?>
<svg xmlns="http://www.w3.org/2000/svg" xmlns:xlink="http://www.w3.org/1999/xlink" width="200px" height="150px" viewBox="0 0 200 150" version="1.1">
<defs>
<clipPath id="clip1">
  <path d="M 55.554688 30 L 144.445312 30 L 144.445312 120 L 55.554688 120 Z M 55.554688 30 "/>
</clipPath>
<clipPath id="clip2">
  <path d="M 71.109375 63.539062 L 128.886719 63.539062 L 128.886719 86.460938 L 71.109375 86.460938 Z M 71.109375 63.539062 "/>
</clipPath>
</defs>
<g id="surface1">
<rect x="0" y="0" width="200" height="150" style="fill:rgb(0%,0%,0%);fill-opacity:1;stroke:none;"/>
<g clip-path="url(#clip1)" clip-rule="nonzero">
<path style=" stroke:none;fill-rule:nonzero;fill:rgb(100%,100%,100%);fill-opacity:1;" d="M 100 36.714844 C 120.117188 36.714844 136.652344 52.304688 138.230469 72 L 144.445312 72 C 144.128906 67.046875 142.96875 62.308594 141.074219 57.78125 C 138.863281 52.515625 135.597656 47.667969 131.492188 43.667969 C 127.382812 39.558594 122.644531 36.402344 117.378906 34.082031 C 111.796875 31.765625 106.003906 30.503906 100 30.503906 C 93.996094 30.503906 88.203125 31.660156 82.621094 33.976562 C 77.355469 36.191406 72.511719 39.453125 68.507812 43.5625 C 64.402344 47.671875 61.242188 52.410156 58.925781 57.675781 C 57.03125 62.203125 55.871094 67.046875 55.554688 71.894531 L 61.769531 71.894531 C 63.347656 52.304688 79.882812 36.714844 100 36.714844 Z M 100 113.386719 C 79.882812 113.386719 63.347656 97.800781 61.769531 78.105469 L 55.554688 78.105469 C 55.871094 83.058594 57.03125 87.796875 58.925781 92.324219 C 61.136719 97.589844 64.402344 102.4375 68.507812 106.4375 C 72.617188 110.546875 77.355469 113.703125 82.621094 116.023438 C 88.097656 118.339844 93.890625 119.496094 100 119.496094 C 106.109375 119.496094 111.796875 118.339844 117.378906 116.023438 C 122.644531 113.808594 127.488281 110.546875 131.492188 106.4375 C 135.597656 102.328125 138.757812 97.589844 141.074219 92.324219 C 142.96875 87.796875 144.128906 82.953125 144.445312 78.105469 L 138.230469 78.105469 C 136.652344 97.800781 120.117188 113.386719 100 113.386719 Z M 100 113.386719 "/>
</g>
<g clip-path="url(#clip2)" clip-rule="nonzero">
<path style=" stroke:none;fill-rule:nonzero;fill:rgb(100%,100%,100%);fill-opacity:1;" d="M 78.570312 86.460938 C 77.253906 86.460938 76.125 86.191406 75.175781 85.660156 C 74.226562 85.128906 73.441406 84.398438 72.820312 83.464844 C 72.207031 82.539062 71.761719 81.484375 71.480469 80.304688 C 71.199219 79.125 71.078125 77.902344 71.117188 76.628906 C 71.203125 74.351562 71.621094 72.390625 72.371094 70.742188 C 73.121094 69.09375 74.074219 67.734375 75.21875 66.671875 C 76.367188 65.605469 77.605469 64.816406 78.933594 64.304688 C 80.257812 63.792969 81.535156 63.539062 82.765625 63.539062 C 83.808594 63.539062 84.757812 63.710938 85.601562 64.054688 C 86.445312 64.398438 87.117188 64.902344 87.621094 65.554688 C 88.121094 66.214844 88.371094 67.015625 88.371094 67.953125 C 88.371094 68.683594 88.160156 69.390625 87.734375 70.066406 C 87.300781 70.746094 86.65625 71.300781 85.792969 71.726562 C 84.921875 72.15625 83.808594 72.371094 82.453125 72.371094 C 82.683594 71.703125 82.851562 71.117188 82.953125 70.617188 C 83.058594 70.117188 83.109375 69.6875 83.109375 69.332031 C 83.109375 68.601562 82.945312 68.105469 82.609375 67.84375 C 82.277344 67.582031 81.859375 67.453125 81.359375 67.453125 C 80.753906 67.453125 80.179688 67.671875 79.636719 68.113281 C 79.09375 68.550781 78.609375 69.136719 78.183594 69.878906 C 77.753906 70.621094 77.414062 71.441406 77.160156 72.339844 C 76.910156 73.234375 76.765625 74.144531 76.722656 75.0625 C 76.640625 77.378906 76.972656 79.132812 77.726562 80.324219 C 78.476562 81.511719 79.449219 82.109375 80.636719 82.109375 C 81.554688 82.109375 82.574219 81.730469 83.695312 80.980469 C 84.808594 80.230469 85.910156 79.089844 86.992188 77.566406 L 87.402344 77.753906 C 87.128906 79.632812 86.535156 81.21875 85.617188 82.515625 C 84.699219 83.808594 83.617188 84.789062 82.378906 85.457031 C 81.132812 86.125 79.863281 86.460938 78.570312 86.460938 Z M 92.785156 86.398438 C 92.015625 86.398438 91.308594 86.085938 90.667969 85.457031 C 90.035156 84.832031 89.71875 83.839844 89.71875 82.484375 C 89.71875 81.125 89.847656 79.816406 90.105469 78.550781 C 90.367188 77.289062 90.671875 76.074219 91.015625 74.90625 C 91.359375 73.738281 91.664062 72.625 91.921875 71.566406 C 92.183594 70.515625 92.316406 69.519531 92.316406 68.582031 C 92.003906 68.457031 91.710938 68.394531 91.441406 68.394531 C 91.0625 68.394531 90.75 68.507812 90.5 68.738281 C 90.25 68.96875 90.050781 69.28125 89.90625 69.675781 L 89.59375 69.582031 C 89.613281 68.121094 89.828125 66.957031 90.230469 66.089844 C 90.640625 65.222656 91.167969 64.605469 91.816406 64.230469 C 92.460938 63.851562 93.128906 63.664062 93.820312 63.664062 C 94.863281 63.664062 95.796875 64.003906 96.617188 64.679688 C 97.445312 65.359375 98.1875 66.285156 98.84375 67.453125 C 99.5 68.621094 100.074219 69.941406 100.5625 71.410156 C 101.058594 72.886719 101.480469 74.417969 101.835938 76.015625 C 102.191406 77.613281 102.472656 79.183594 102.679688 80.730469 C 102.804688 79.894531 102.933594 78.871094 103.070312 77.660156 C 103.207031 76.449219 103.328125 75.175781 103.433594 73.839844 C 103.535156 72.503906 103.589844 71.230469 103.589844 70.019531 C 103.589844 69.144531 103.558594 68.34375 103.496094 67.621094 C 103.433594 66.90625 103.328125 66.285156 103.183594 65.761719 L 103.183594 65.511719 C 103.722656 64.90625 104.269531 64.449219 104.824219 64.136719 C 105.378906 63.820312 105.894531 63.664062 106.375 63.664062 C 107.085938 63.664062 107.675781 63.972656 108.140625 64.585938 C 108.613281 65.203125 108.847656 66.078125 108.847656 67.203125 C 108.847656 68.039062 108.734375 69.054688 108.503906 70.253906 C 108.273438 71.457031 108.003906 72.734375 107.691406 74.09375 C 107.378906 75.449219 107.101562 76.777344 106.859375 78.082031 C 106.621094 79.386719 106.492188 80.5625 106.46875 81.605469 C 106.46875 81.898438 106.492188 82.210938 106.53125 82.546875 C 106.574219 82.878906 106.792969 83.046875 107.191406 83.046875 C 107.210938 83.128906 107.222656 83.191406 107.222656 83.234375 C 107.222656 83.277344 107.222656 83.320312 107.222656 83.359375 C 107.199219 84.152344 106.875 84.855469 106.25 85.46875 C 105.625 86.089844 104.789062 86.398438 103.746094 86.398438 C 102.929688 86.398438 102.242188 86.1875 101.679688 85.769531 C 101.113281 85.355469 100.644531 84.792969 100.269531 84.09375 C 99.894531 83.394531 99.574219 82.601562 99.3125 81.714844 C 99.054688 80.828125 98.808594 79.914062 98.578125 78.976562 C 98.160156 77.347656 97.726562 75.800781 97.277344 74.328125 C 96.828125 72.855469 96.230469 71.503906 95.480469 70.273438 C 95.519531 71.105469 95.488281 72.019531 95.386719 73.007812 C 95.28125 74.003906 95.171875 75.003906 95.054688 76.015625 C 94.941406 77.027344 94.882812 78.007812 94.882812 78.945312 C 94.882812 79.78125 94.957031 80.546875 95.101562 81.242188 C 95.25 81.945312 95.511719 82.566406 95.886719 83.109375 C 95.886719 84.132812 95.5625 84.9375 94.914062 85.519531 C 94.269531 86.105469 93.558594 86.398438 92.785156 86.398438 Z M 119.089844 86.460938 C 117.773438 86.460938 116.640625 86.191406 115.6875 85.660156 C 114.738281 85.128906 113.957031 84.398438 113.339844 83.464844 C 112.726562 82.539062 112.277344 81.484375 111.992188 80.304688 C 111.714844 79.125 111.59375 77.902344 111.636719 76.628906 C 111.71875 74.351562 112.136719 72.390625 112.886719 70.742188 C 113.640625 69.09375 114.589844 67.734375 115.738281 66.671875 C 116.886719 65.605469 118.121094 64.816406 119.445312 64.304688 C 120.773438 63.792969 122.050781 63.539062 123.285156 63.539062 C 124.328125 63.539062 125.269531 63.710938 126.113281 64.054688 C 126.960938 64.398438 127.636719 64.902344 128.136719 65.554688 C 128.636719 66.214844 128.886719 67.015625 128.886719 67.953125 C 128.886719 68.683594 128.671875 69.390625 128.242188 70.066406 C 127.816406 70.746094 127.171875 71.300781 126.300781 71.726562 C 125.4375 72.15625 124.328125 72.371094 122.96875 72.371094 C 123.199219 71.703125 123.367188 71.117188 123.472656 70.617188 C 123.574219 70.117188 123.628906 69.6875 123.628906 69.332031 C 123.628906 68.601562 123.460938 68.105469 123.128906 67.84375 C 122.792969 67.582031 122.375 67.453125 121.875 67.453125 C 121.269531 67.453125 120.695312 67.671875 120.152344 68.113281 C 119.609375 68.550781 119.125 69.136719 118.695312 69.878906 C 118.269531 70.621094 117.929688 71.441406 117.679688 72.339844 C 117.429688 73.234375 117.28125 74.144531 117.242188 75.0625 C 117.15625 77.378906 117.492188 79.132812 118.242188 80.324219 C 118.992188 81.511719 119.964844 82.109375 121.15625 82.109375 C 122.074219 82.109375 123.089844 81.730469 124.203125 80.980469 C 125.324219 80.230469 126.425781 79.089844 127.511719 77.566406 L 127.917969 77.753906 C 127.644531 79.632812 127.050781 81.21875 126.132812 82.515625 C 125.214844 83.808594 124.132812 84.789062 122.890625 85.457031 C 121.648438 86.125 120.382812 86.460938 119.089844 86.460938 Z M 119.089844 86.460938 "/>
</g>
</g>
</svg>
